<?xml version="1.0" standalone="no"?>
<!DOCTYPE svg PUBLIC "-//W3C//DTD SVG 20010904//EN"
 "http://www.w3.org/TR/2001/REC-SVG-20010904/DTD/svg10.dtd">
<svg version="1.0" xmlns="http://www.w3.org/2000/svg"
 width="389.000000pt" height="388.000000pt" viewBox="0 0 389.000000 388.000000"
 preserveAspectRatio="xMidYMid meet">
<metadata>
Created by potrace 1.16, written by Peter Selinger 2001-2019
</metadata>
<g transform="translate(0.000000,388.000000) scale(0.100000,-0.100000)"
fill="#000000" stroke="none">
<path d="M1859 3842 c-30 -16 -79 -43 -109 -60 -63 -36 -109 -40 -187 -17 -28
8 -73 19 -100 24 -68 13 -114 -9 -188 -93 -78 -89 -112 -106 -215 -106 -103 0
-161 -15 -193 -48 -14 -15 -44 -64 -67 -109 -51 -102 -86 -132 -187 -162 -142
-41 -164 -66 -189 -209 -9 -47 -20 -95 -26 -106 -19 -37 -62 -77 -131 -122
-103 -67 -109 -82 -101 -240 7 -150 4 -159 -73 -246 -58 -66 -87 -128 -78
-171 3 -18 20 -63 37 -102 47 -105 48 -154 4 -256 -19 -46 -38 -98 -42 -116
-8 -40 20 -99 77 -165 l41 -48 197 0 198 0 -22 88 c-50 192 -57 475 -16 667
108 503 466 920 948 1101 258 97 595 116 876 50 417 -99 795 -401 985 -789
111 -225 143 -363 149 -642 5 -200 4 -215 -22 -329 -15 -65 -29 -125 -32 -132
-4 -12 26 -14 175 -14 l181 0 47 58 c85 104 87 124 28 269 -43 105 -43 144 0
247 19 45 37 95 41 113 8 42 -19 102 -79 172 -77 89 -79 96 -72 245 8 161 6
166 -118 250 -102 69 -118 94 -140 219 -24 141 -41 161 -169 202 -136 43 -154
58 -215 180 -22 44 -51 90 -63 102 -33 30 -90 43 -187 43 -106 0 -137 14 -210
97 -98 111 -144 125 -278 83 -93 -28 -138 -26 -204 12 -113 64 -164 88 -190
88 -15 0 -51 -13 -81 -28z"/>
<path d="M1810 3310 c-221 -21 -468 -117 -662 -257 -101 -72 -268 -245 -332
-343 -72 -109 -132 -232 -167 -340 -54 -169 -64 -230 -64 -415 0 -174 9 -247
47 -387 l21 -78 40 0 c36 0 39 2 33 23 -96 323 -93 593 10 877 158 442 574
777 1041 840 125 17 360 8 476 -19 291 -67 567 -248 749 -491 111 -148 178
-291 226 -477 25 -99 27 -124 27 -303 0 -199 -5 -231 -61 -427 -6 -21 -3 -23
29 -23 20 0 38 4 41 8 16 26 56 213 66 310 19 185 -9 412 -75 594 -163 453
-544 785 -1015 886 -111 24 -308 34 -430 22z"/>
<path d="M1591 3049 c-84 -16 -141 -86 -156 -191 -6 -40 -5 -48 9 -48 11 0 16
9 16 28 0 50 30 120 65 151 60 52 173 51 210 -2 21 -30 19 -86 -5 -124 -21
-35 -26 -37 -81 -24 -39 9 -69 -1 -69 -24 0 -22 37 -37 71 -30 57 13 94 -55
69 -129 -16 -49 -53 -76 -104 -76 -61 0 -95 33 -74 73 12 23 37 22 65 -5 23
-21 23 -21 23 -1 0 25 -30 53 -58 53 -31 0 -62 -35 -62 -68 0 -65 98 -102 170
-65 67 35 92 129 54 208 -16 35 -16 37 3 58 46 50 54 96 28 151 -26 55 -92 80
-174 65z"/>
<path d="M1612 2993 c-20 -19 -41 -64 -67 -143 -46 -140 -66 -182 -101 -209
-38 -30 -89 -28 -110 4 -26 40 6 105 53 105 14 0 23 6 23 15 0 19 -23 19 -60
0 -36 -19 -50 -43 -50 -88 0 -48 27 -77 75 -83 79 -11 131 48 180 205 40 125
65 180 86 186 21 7 25 20 9 30 -6 4 -23 -6 -38 -22z"/>
<path d="M2087 2924 c-12 -12 -8 -48 7 -70 13 -18 10 -28 -24 -98 -41 -84 -52
-96 -87 -96 -28 0 -28 5 -2 64 30 68 29 123 -1 148 -61 50 -158 -52 -176 -184
-12 -88 41 -126 104 -73 23 19 36 23 63 19 48 -8 81 22 124 113 34 71 38 75
63 68 42 -10 44 -17 22 -80 -23 -66 -26 -115 -8 -133 19 -19 53 -14 78 13 l24
25 21 -26 c17 -22 27 -26 49 -20 14 3 35 15 46 26 19 19 19 19 25 0 9 -28 50
-36 80 -16 23 15 75 102 75 126 0 23 -19 7 -40 -32 -29 -56 -49 -78 -72 -78
-27 0 -23 30 18 153 21 59 34 110 30 115 -4 4 -12 -1 -17 -11 -9 -16 -12 -16
-32 -2 -12 8 -30 15 -41 15 -32 0 -91 -73 -122 -150 -29 -75 -63 -120 -89
-120 -27 0 -27 24 0 109 15 46 23 87 18 91 -4 4 -24 13 -43 19 -32 10 -35 14
-35 48 0 33 -3 38 -25 41 -14 2 -29 0 -33 -4z m-119 -76 c25 -25 4 -117 -26
-114 -13 1 -17 -7 -18 -31 0 -40 -39 -85 -69 -81 -46 7 -15 148 48 216 23 24
47 28 65 10z m485 -10 c13 -19 -22 -114 -63 -175 -35 -51 -73 -54 -78 -5 -7
75 66 207 111 200 11 -2 25 -10 30 -20z"/>
<path d="M1198 2158 c-25 -39 -40 -98 -34 -133 7 -34 64 -95 90 -95 10 0 10
-14 -2 -70 -13 -57 -13 -77 -3 -110 29 -98 180 -109 255 -19 23 27 25 28 31 9
11 -36 76 -38 111 -3 14 14 17 14 30 -5 11 -16 24 -20 57 -19 l43 2 33 85 c48
126 97 191 135 177 23 -9 20 -41 -14 -142 -32 -93 -36 -115 -21 -115 4 0 21
35 36 78 47 132 104 202 144 177 16 -9 14 -29 -15 -121 -30 -95 -27 -130 11
-140 26 -7 72 16 81 40 4 9 14 5 34 -15 52 -53 130 -32 181 49 16 25 29 52 29
59 0 25 -19 13 -36 -22 -37 -79 -125 -113 -159 -61 -28 42 -11 71 55 95 66 24
100 59 100 102 0 29 -23 49 -54 49 -32 0 -92 -68 -121 -137 -35 -84 -70 -133
-96 -133 -25 0 -25 29 0 101 32 95 34 126 11 149 -27 27 -52 25 -89 -5 -29
-25 -30 -26 -41 -6 -13 25 -52 36 -78 22 -13 -7 -22 -7 -30 1 -13 13 -22 -4
-63 -117 -34 -93 -69 -145 -100 -145 -28 0 -24 29 16 145 37 106 41 125 26
125 -5 0 -21 -33 -36 -72 -61 -163 -84 -198 -129 -198 -40 0 -40 31 -2 137 42
120 44 125 31 129 -6 3 -19 -19 -29 -48 -59 -166 -110 -240 -179 -259 -47 -12
-100 2 -122 34 -18 25 -19 81 -4 143 11 42 13 44 48 44 118 0 221 76 221 163
0 50 -13 73 -47 84 -66 22 -144 -40 -200 -158 l-28 -58 -33 16 c-55 27 -67 89
-32 158 22 43 12 70 -12 33z m307 -22 c24 -18 25 -74 1 -111 -22 -33 -109 -75
-158 -75 -21 0 -38 3 -38 6 0 18 56 114 83 143 48 50 80 61 112 37z"/>
<path d="M2507 2150 c-30 -24 -51 -81 -43 -116 10 -38 26 -28 26 15 0 60 35
96 94 96 59 0 90 -28 88 -80 -2 -51 -14 -67 -93 -125 -70 -51 -99 -92 -99
-140 0 -33 16 -23 29 19 11 38 30 58 119 126 52 39 72 74 72 125 0 33 -6 48
-29 71 -25 25 -37 29 -84 29 -39 0 -61 -6 -80 -20z"/>
<path d="M1270 1273 l0 -128 62 5 63 5 3 109 c2 71 -1 113 -9 122 -7 9 -31 14
-65 14 l-54 0 0 -127z"/>
<path d="M1450 1275 l0 -125 69 0 c64 0 69 2 64 19 -4 14 -15 21 -42 23 -31 3
-36 7 -39 31 -3 24 0 27 27 27 26 0 31 4 31 25 0 21 -5 25 -30 25 -25 0 -30 4
-30 25 0 22 4 25 39 25 30 0 40 4 44 19 7 28 1 31 -70 31 l-63 0 0 -125z"/>
<path d="M1630 1277 c0 -68 2 -126 4 -128 2 -2 32 -2 66 -1 56 4 61 6 58 25
-3 19 -8 22 -40 19 l-38 -4 0 106 0 106 -25 0 -25 0 0 -123z"/>
<path d="M1900 1397 c0 -2 9 -45 21 -97 11 -52 22 -106 23 -120 3 -21 8 -25
36 -25 28 0 33 4 36 25 1 14 12 68 23 120 12 52 21 95 21 97 0 2 -11 3 -24 3
-21 0 -26 -7 -35 -50 -6 -28 -11 -58 -11 -66 0 -33 -18 -2 -25 42 -9 66 -14
74 -41 74 -13 0 -24 -1 -24 -3z"/>
<path d="M2100 1275 l0 -125 69 0 c59 0 69 2 67 18 -1 12 -12 18 -41 22 -35 4
-40 9 -43 33 -3 24 0 27 27 27 26 0 31 4 31 25 0 21 -5 25 -30 25 -25 0 -30 4
-30 25 0 23 4 25 40 25 36 0 40 3 40 25 0 24 -2 25 -65 25 l-65 0 0 -125z"/>
<path d="M2278 1276 l-3 -125 28 -4 c26 -3 27 -2 27 40 0 54 16 56 25 3 6 -36
10 -40 35 -40 28 0 29 1 18 31 -7 22 -7 42 2 74 13 45 7 110 -12 133 -6 7 -33
12 -64 12 l-53 0 -3 -124z"/>
<path d="M2458 1394 c-3 -3 6 -28 20 -57 18 -37 26 -71 28 -117 2 -62 4 -65
28 -68 25 -3 26 -1 26 41 0 27 12 75 30 118 16 41 30 77 30 82 0 4 -11 7 -25
7 -19 0 -28 -9 -42 -42 l-19 -41 -13 41 c-11 32 -19 42 -36 42 -12 0 -24 -2
-27 -6z"/>
<path d="M531 1030 l-224 -5 35 -27 c46 -35 63 -73 81 -181 24 -138 49 -163
219 -217 83 -26 107 -50 167 -166 25 -48 58 -96 72 -107 34 -24 94 -36 187
-37 93 0 133 -20 203 -100 92 -106 138 -119 274 -80 119 34 161 27 264 -43 60
-41 121 -58 164 -46 19 5 71 32 117 59 97 58 132 62 245 30 135 -39 184 -25
269 75 78 91 93 98 227 106 166 11 178 18 253 164 52 103 76 124 181 156 90
27 138 54 158 88 9 16 23 67 32 115 18 107 37 148 84 186 l36 30 -218 0 c-119
0 -217 -4 -217 -8 0 -19 -161 -181 -251 -252 -199 -159 -426 -262 -673 -305
-121 -21 -425 -21 -536 1 -328 62 -638 245 -881 519 l-44 50 -224 -5z"/>
<path d="M930 1030 c1 -10 86 -96 145 -146 129 -110 295 -202 455 -252 126
-40 166 -48 290 -63 337 -38 710 70 985 286 84 67 182 161 174 169 -2 3 -22 6
-44 7 -35 1 -46 -4 -94 -49 -178 -167 -422 -287 -670 -328 -125 -20 -373 -15
-491 11 -219 48 -445 168 -614 325 -42 39 -54 45 -92 45 -24 0 -44 -2 -44 -5z"/>
</g>
</svg>
